<svg width="21" height="28" viewBox="0 0 21 28" fill="none" xmlns="http://www.w3.org/2000/svg">
<path d="M10.386 0.366211C12.6222 2.72091 16.1819 4.64102 19.9826 5.44304C19.9866 5.69589 20.0024 7.09449 20.0735 13.5383C20.1683 22.1314 11.9782 26.3864 10.71 27.0383C9.46942 26.4813 1.12129 22.3408 1.02647 13.7477C0.951408 7.30388 0.935608 5.90529 0.935608 5.65243C4.71656 4.76744 8.2012 2.77227 10.386 0.366211V0.366211Z" fill="#0F1012"/>
<path d="M10.4177 1.91895C12.6104 3.89437 15.6328 5.43519 18.9555 6.26487L19.0345 13.5463C19.074 16.8808 17.7623 19.9032 15.1429 22.5344C13.4204 24.2609 11.6069 25.3395 10.6864 25.8215C10.6429 25.8018 10.5995 25.782 10.556 25.7583L10.4019 1.9387C10.4072 1.93343 10.4125 1.92685 10.4177 1.91895V1.91895Z" fill="url(#paint0_linear_138_1795)"/>
<path d="M10.4018 1.93872L10.5559 25.7583C9.59192 25.2684 7.83775 24.2491 6.15469 22.6332C3.47602 20.0612 2.09718 17.0665 2.06162 13.7359L1.9826 6.45058C5.27365 5.55374 8.25654 3.9497 10.4018 1.93872V1.93872Z" fill="url(#paint1_linear_138_1795)"/>
<path fill-rule="evenodd" clip-rule="evenodd" d="M14.321 12.4082L14.3605 18.05C14.3645 18.6782 6.66034 18.7295 6.65244 18.1014L6.61688 12.4596L14.321 12.4082ZM10.0976 15.4306L10.1094 17.0307C10.1094 17.244 10.2872 17.4179 10.5006 17.4179C10.7179 17.4139 10.8917 17.2361 10.8877 17.0228L10.8798 15.4227C11.2078 15.2726 11.4369 14.9367 11.433 14.5575C11.429 14.032 10.9984 13.6132 10.4729 13.6172C9.94744 13.6211 9.52865 14.0439 9.5326 14.5693C9.5326 14.9525 9.76571 15.2844 10.0976 15.4306V15.4306Z" fill="#15171B"/>
<path d="M7.28456 11.6735C7.27271 9.92719 8.69106 8.50094 10.4413 8.48909C12.1955 8.47724 13.6296 9.88769 13.6415 11.63L13.6454 12.0093L12.8631 12.0172V11.634C12.8513 10.3183 11.7688 9.25555 10.4492 9.26345C9.12565 9.27135 8.05893 10.3499 8.06683 11.6656V12.0488L7.28851 12.0527L7.28456 11.6735Z" fill="#15171B"/>
<defs>
<linearGradient id="paint0_linear_138_1795" x1="12.3404" y1="8.08894" x2="20.2011" y2="8.65964" gradientUnits="userSpaceOnUse">
<stop stop-color="#A7CD02"/>
<stop offset="1" stop-color="#FEAD4D"/>
</linearGradient>
<linearGradient id="paint1_linear_138_1795" x1="3.90761" y1="8.0873" x2="11.7139" y2="8.65206" gradientUnits="userSpaceOnUse">
<stop stop-color="#A7CD02"/>
<stop offset="1" stop-color="#FEAD4D"/>
</linearGradient>
</defs>
</svg>
