<svg width="26" height="24" viewBox="0 0 26 24" fill="none" xmlns="http://www.w3.org/2000/svg">
<path fill-rule="evenodd" clip-rule="evenodd" d="M16.59 0.605612C16.6501 0.683408 16.7026 0.766862 16.7466 0.854799L16.9239 1.20922C17.3059 1.97263 18.1552 2.38167 18.9902 2.20433L19.3779 2.12199C20.1981 1.9478 21.0041 2.47146 21.1783 3.29162C21.1988 3.3878 21.2098 3.48575 21.2113 3.58406L21.2173 3.98033C21.2302 4.83386 21.818 5.57094 22.6472 5.77345L23.0322 5.86747C23.8468 6.06638 24.3458 6.88793 24.1469 7.70244C24.1236 7.79797 24.091 7.891 24.0497 7.98022L23.8832 8.33985C23.5245 9.11445 23.7342 10.0336 24.3935 10.5758L24.6996 10.8276C25.3471 11.3602 25.4403 12.3169 24.9077 12.9645C24.8452 13.0404 24.7755 13.1101 24.6996 13.1726L24.3935 13.4243C23.7342 13.9666 23.5245 14.8857 23.8832 15.6603L24.0497 16.0199C24.402 16.7808 24.0709 17.6832 23.31 18.0355C23.2208 18.0768 23.1278 18.1093 23.0322 18.1327L22.6472 18.2267C21.818 18.4292 21.2302 19.1663 21.2173 20.0198L21.2113 20.4161C21.1986 21.2544 20.5087 21.9238 19.6704 21.9111C19.572 21.9096 19.4741 21.8986 19.3779 21.8782L18.9902 21.7958C18.1552 21.6185 17.3059 22.0275 16.9239 22.7909L16.7466 23.1453C16.3714 23.8952 15.4594 24.1989 14.7096 23.8237C14.6216 23.7797 14.5382 23.7273 14.4604 23.6672L14.1468 23.4248C13.4715 22.9027 12.5287 22.9027 11.8533 23.4248L11.5398 23.6672C10.8764 24.18 9.92297 24.0579 9.41017 23.3945C9.35004 23.3167 9.2976 23.2333 9.2536 23.1453L9.07627 22.7909C8.6943 22.0275 7.84491 21.6185 7.00991 21.7958L6.62224 21.8782C5.80208 22.0523 4.99601 21.5287 4.82181 20.7085C4.80139 20.6123 4.79035 20.5144 4.78886 20.4161L4.78287 20.0198C4.76996 19.1663 4.18216 18.4292 3.35291 18.2267L2.96791 18.1327C2.15339 17.9338 1.65435 17.1122 1.85326 16.2977C1.87659 16.2022 1.90914 16.1092 1.95046 16.0199L2.11699 15.6603C2.4757 14.8857 2.26591 13.9666 1.60665 13.4243L1.30057 13.1726C0.65302 12.6399 0.559852 11.6832 1.09247 11.0357C1.15493 10.9597 1.22463 10.89 1.30057 10.8276L1.60665 10.5758C2.26591 10.0336 2.4757 9.11445 2.11699 8.33985L1.95046 7.98022C1.59813 7.21939 1.92929 6.317 2.69013 5.96467C2.77935 5.92335 2.87238 5.8908 2.96791 5.86747L3.35291 5.77345C4.18216 5.57094 4.76996 4.83386 4.78287 3.98033L4.78886 3.58406C4.80154 2.74571 5.49144 2.07637 6.3298 2.08904C6.42811 2.09053 6.52606 2.10157 6.62224 2.12199L7.00991 2.20433C7.84491 2.38167 8.6943 1.97263 9.07627 1.20922L9.2536 0.854799C9.62877 0.104968 10.5408 -0.198753 11.2906 0.176418C11.3785 0.220416 11.462 0.272854 11.5398 0.332993L11.8533 0.575376C12.5287 1.09745 13.4715 1.09745 14.1468 0.575376L14.4604 0.332993C15.1237 -0.179801 16.0772 -0.0577452 16.59 0.605612ZM17.9634 8.84201C17.5896 8.50758 17.0217 8.51602 16.658 8.8614L12.7158 12.6049C12.2858 13.0132 11.6127 13.0176 11.1773 12.6151L9.52665 11.0887C9.114 10.7072 8.47249 10.7238 8.08012 11.1262C8.06158 11.1452 8.04386 11.165 8.02702 11.1855C7.70254 11.5813 7.76029 12.1651 8.15601 12.4896L10.8369 14.6878C11.5747 15.2928 12.6493 15.2472 13.3332 14.5819L17.9887 10.053C18.0024 10.0396 18.0157 10.0258 18.0285 10.0115C18.3335 9.67062 18.3043 9.147 17.9634 8.84201Z" fill="url(#paint0_linear_138_1705)"/>
<defs>
<linearGradient id="paint0_linear_138_1705" x1="6.24933" y1="6.20274" x2="27.7711" y2="10.6258" gradientUnits="userSpaceOnUse">
<stop stop-color="#A7CD02"/>
<stop offset="1" stop-color="#FEAD4D"/>
</linearGradient>
</defs>
</svg>
