<svg width="25" height="25" viewBox="0 0 25 25" fill="none" xmlns="http://www.w3.org/2000/svg">
<g clip-path="url(#clip0_1242_128)">
<path d="M7.15649 17.6035C7.15649 18.7081 8.05192 19.6035 9.15649 19.6035H15.1565C16.2611 19.6035 17.1565 18.7081 17.1565 17.6035V6.60352C17.1565 5.49895 16.2611 4.60352 15.1565 4.60352H9.15649C8.05192 4.60352 7.15649 5.49895 7.15649 6.60352V17.6035ZM2.15649 15.6035C2.15649 16.7081 3.05192 17.6035 4.15649 17.6035C5.26106 17.6035 6.15649 16.7081 6.15649 15.6035V8.60352C6.15649 7.49895 5.26106 6.60352 4.15649 6.60352C3.05192 6.60352 2.15649 7.49895 2.15649 8.60352V15.6035ZM20.1565 6.60352C19.0519 6.60352 18.1565 7.49895 18.1565 8.60352V15.6035C18.1565 16.7081 19.0519 17.6035 20.1565 17.6035C21.2611 17.6035 22.1565 16.7081 22.1565 15.6035V8.60352C22.1565 7.49895 21.2611 6.60352 20.1565 6.60352Z" fill="url(#paint0_linear_1242_128)"/>
</g>
<defs>
<linearGradient id="paint0_linear_1242_128" x1="6.64717" y1="8.47548" x2="23.7263" y2="13.0528" gradientUnits="userSpaceOnUse">
<stop stop-color="#A7CD02"/>
<stop offset="1" stop-color="#FEAD4D"/>
</linearGradient>
<clipPath id="clip0_1242_128">
<rect width="24" height="24" fill="white" transform="translate(0.156494 0.603516)"/>
</clipPath>
</defs>
</svg>
