<svg width="25" height="24" viewBox="0 0 25 24" fill="none" xmlns="http://www.w3.org/2000/svg">
<path d="M19.7407 5.33005C18.4107 4.71005 16.9707 4.26005 15.4707 4.00005C15.4575 3.99963 15.4445 4.00209 15.4324 4.00728C15.4203 4.01246 15.4095 4.02023 15.4007 4.03005C15.2207 4.36005 15.0107 4.79005 14.8707 5.12005C13.2797 4.88005 11.6617 4.88005 10.0707 5.12005C9.9307 4.78005 9.7207 4.36005 9.5307 4.03005C9.5207 4.01005 9.4907 4.00005 9.4607 4.00005C7.9607 4.26005 6.5307 4.71005 5.1907 5.33005C5.1807 5.33005 5.1707 5.34005 5.1607 5.35005C2.4407 9.42005 1.6907 13.38 2.0607 17.3C2.0607 17.32 2.0707 17.34 2.0907 17.35C3.8907 18.67 5.6207 19.47 7.3307 20C7.3607 20.01 7.3907 20 7.4007 19.98C7.8007 19.43 8.1607 18.85 8.4707 18.24C8.4907 18.2 8.4707 18.16 8.4307 18.15C7.8607 17.93 7.3207 17.67 6.7907 17.37C6.7507 17.35 6.7507 17.29 6.7807 17.26C6.8907 17.18 7.0007 17.09 7.1107 17.01C7.1307 16.99 7.1607 16.99 7.1807 17C10.6207 18.57 14.3307 18.57 17.7307 17C17.7507 16.99 17.7807 16.99 17.8007 17.01C17.9107 17.1 18.0207 17.18 18.1307 17.27C18.1707 17.3 18.1707 17.36 18.1207 17.38C17.6007 17.69 17.0507 17.94 16.4807 18.16C16.4407 18.17 16.4307 18.22 16.4407 18.25C16.7607 18.86 17.1207 19.44 17.5107 19.99C17.5407 20 17.5707 20.01 17.6007 20C19.3207 19.47 21.0507 18.67 22.8507 17.35C22.8707 17.34 22.8807 17.32 22.8807 17.3C23.3207 12.77 22.1507 8.84005 19.7807 5.35005C19.7707 5.34005 19.7607 5.33005 19.7407 5.33005ZM8.9907 14.91C7.9607 14.91 7.1007 13.96 7.1007 12.79C7.1007 11.62 7.9407 10.67 8.9907 10.67C10.0507 10.67 10.8907 11.63 10.8807 12.79C10.8807 13.96 10.0407 14.91 8.9907 14.91ZM15.9607 14.91C14.9307 14.91 14.0707 13.96 14.0707 12.79C14.0707 11.62 14.9107 10.67 15.9607 10.67C17.0207 10.67 17.8607 11.63 17.8507 12.79C17.8507 13.96 17.0207 14.91 15.9607 14.91Z" fill="white"/>
</svg>
