<svg width="25" height="24" viewBox="0 0 25 24" fill="none" xmlns="http://www.w3.org/2000/svg">
<path d="M22.9307 6C22.1607 6.35 21.3307 6.58 20.4707 6.69C21.3507 6.16 22.0307 5.32 22.3507 4.31C21.5207 4.81 20.6007 5.16 19.6307 5.36C18.8407 4.5 17.7307 4 16.4707 4C14.1207 4 12.2007 5.92 12.2007 8.29C12.2007 8.63 12.2407 8.96 12.3107 9.27C8.75068 9.09 5.58068 7.38 3.47068 4.79C3.10068 5.42 2.89068 6.16 2.89068 6.94C2.89068 8.43 3.64068 9.75 4.80068 10.5C4.09068 10.5 3.43068 10.3 2.85068 10V10.03C2.85068 12.11 4.33068 13.85 6.29068 14.24C5.66141 14.4122 5.00078 14.4362 4.36068 14.31C4.63229 15.1625 5.16422 15.9084 5.8817 16.4429C6.59918 16.9775 7.46613 17.2737 8.36068 17.29C6.84431 18.4904 4.96468 19.1393 3.03068 19.13C2.69068 19.13 2.35068 19.11 2.01068 19.07C3.91068 20.29 6.17068 21 8.59068 21C16.4707 21 20.8007 14.46 20.8007 8.79C20.8007 8.6 20.8007 8.42 20.7907 8.23C21.6307 7.63 22.3507 6.87 22.9307 6Z" fill="white"/>
</svg>
