<svg width="25" height="25" viewBox="0 0 25 25" fill="none" xmlns="http://www.w3.org/2000/svg">
<path d="M12.3865 22.3362C17.9093 22.3362 22.3865 17.859 22.3865 12.3362C22.3865 6.81333 17.9093 2.33618 12.3865 2.33618C6.86363 2.33618 2.38647 6.81333 2.38647 12.3362C2.38647 17.859 6.86363 22.3362 12.3865 22.3362Z" stroke="#939292" stroke-width="1.5" stroke-miterlimit="10"/>
<g opacity="0.4">
<path d="M9.16577 8.0061H14.5858C15.7858 8.0061 16.7558 9.0861 16.7558 10.1761C16.7558 11.3761 15.7858 12.3461 14.5858 12.3461H9.16577V8.0061Z" stroke="white" stroke-width="1.5" stroke-miterlimit="10" stroke-linecap="round" stroke-linejoin="round"/>
<path d="M9.16577 12.3362H15.3558C16.7258 12.3362 17.8358 13.3062 17.8358 14.5062C17.8358 15.7062 16.7258 16.6762 15.3558 16.6762H9.16577V12.3362Z" stroke="white" stroke-width="1.5" stroke-miterlimit="10" stroke-linecap="round" stroke-linejoin="round"/>
<path d="M12.9568 16.6663V18.8363" stroke="white" stroke-width="1.5" stroke-miterlimit="10" stroke-linecap="round" stroke-linejoin="round"/>
<path d="M10.2566 16.6663V18.8363" stroke="white" stroke-width="1.5" stroke-miterlimit="10" stroke-linecap="round" stroke-linejoin="round"/>
<path d="M12.9568 5.83618V8.00618" stroke="white" stroke-width="1.5" stroke-miterlimit="10" stroke-linecap="round" stroke-linejoin="round"/>
<path d="M10.2566 5.83618V8.00618" stroke="white" stroke-width="1.5" stroke-miterlimit="10" stroke-linecap="round" stroke-linejoin="round"/>
<path d="M11.2263 8.00616H7.43628" stroke="white" stroke-width="1.5" stroke-miterlimit="10" stroke-linecap="round" stroke-linejoin="round"/>
<path d="M11.2263 16.6662H7.43628" stroke="white" stroke-width="1.5" stroke-miterlimit="10" stroke-linecap="round" stroke-linejoin="round"/>
</g>
</svg>
