<svg width="25" height="25" viewBox="0 0 25 25" fill="none" xmlns="http://www.w3.org/2000/svg">
<path d="M12.3865 22.3362C17.9093 22.3362 22.3865 17.859 22.3865 12.3362C22.3865 6.81333 17.9093 2.33618 12.3865 2.33618C6.86363 2.33618 2.38647 6.81333 2.38647 12.3362C2.38647 17.859 6.86363 22.3362 12.3865 22.3362Z" stroke="#939292" stroke-width="1.5" stroke-miterlimit="10"/>
<g style="mix-blend-mode:luminosity" clip-path="url(#clip0_1593_4525)">
<path d="M12.409 5.50844V10.5269C12.409 10.5484 12.3865 10.57 12.364 10.57C12.2065 10.6346 12.0715 10.6992 11.914 10.7638C11.7115 10.85 11.4865 10.9361 11.284 11.0438L10.5415 11.3669L9.93402 11.6254L9.19152 11.9484C8.98902 12.0346 8.78652 12.1207 8.56152 12.2284C8.40402 12.2931 8.22402 12.3792 8.06652 12.4438C8.04402 12.4438 8.04402 12.4654 8.02152 12.4438H7.99902C8.06652 12.3361 8.13402 12.25 8.20152 12.1423C8.56152 11.5607 8.94402 10.9792 9.30402 10.3977C9.68652 9.77305 10.0915 9.14844 10.474 8.52382C10.834 7.94228 11.194 7.36075 11.554 6.80075C11.824 6.36998 12.094 5.96075 12.3415 5.52998C12.3865 5.52998 12.3865 5.50844 12.409 5.50844C12.409 5.50844 12.3865 5.50844 12.409 5.50844Z" fill="#8A92B2"/>
<path d="M16.774 12.4438C16.4365 12.6592 16.0765 12.853 15.739 13.0469C14.6365 13.6715 13.5565 14.2746 12.454 14.8992C12.4315 14.8992 12.4315 14.9207 12.409 14.9207C12.3865 14.9207 12.3865 14.8992 12.3865 14.8992V14.8346V10.6346V10.57C12.3865 10.5484 12.409 10.5484 12.4315 10.5484C12.5215 10.5915 12.6115 10.6346 12.724 10.6776C12.994 10.8069 13.2865 10.9146 13.5565 11.0438C13.804 11.1515 14.029 11.2592 14.2765 11.3453C14.524 11.453 14.749 11.5607 14.9965 11.6684C15.199 11.7546 15.424 11.8407 15.6265 11.9484C15.829 12.0346 16.054 12.1207 16.2565 12.2284C16.414 12.293 16.5715 12.3792 16.7515 12.4438C16.7515 12.4223 16.7515 12.4438 16.774 12.4438Z" fill="#454A75"/>
<path d="M12.4095 19.1423C12.4095 19.1423 12.387 19.1423 12.4095 19.1423C12.387 19.1423 12.387 19.1423 12.3645 19.1207C11.9145 18.5177 11.487 17.9361 11.037 17.3331L9.68697 15.5238C9.25947 14.9423 8.80947 14.3607 8.38197 13.7577L8.04447 13.3054C8.04447 13.2838 8.02197 13.2838 8.02197 13.2623C8.04447 13.2623 8.04447 13.2838 8.06697 13.2838C8.67447 13.6284 9.30447 13.9731 9.91197 14.3177C10.6095 14.7269 11.3295 15.1146 12.027 15.5238C12.1395 15.5884 12.2745 15.6531 12.387 15.7177C12.4095 15.7177 12.4095 15.7392 12.4095 15.7607V19.1423Z" fill="#8A92B2"/>
<path d="M8.02197 12.4439C8.02197 12.4439 8.04447 12.4439 8.02197 12.4439C8.04447 12.4439 8.04447 12.4439 8.02197 12.4439C8.02197 12.4654 8.02197 12.4654 8.02197 12.4439Z" fill="#808080"/>
<path d="M8.04468 12.4653C8.04468 12.4438 8.04468 12.4438 8.04468 12.4653C8.26968 12.3576 8.49468 12.2715 8.71968 12.1638L9.59718 11.7761C9.82218 11.6684 10.0472 11.5822 10.2722 11.4745C10.5872 11.3238 10.9247 11.1945 11.2397 11.0438C11.4647 10.9576 11.6897 10.8499 11.9147 10.7638C12.0722 10.6992 12.2297 10.6345 12.3872 10.5484C12.4097 10.5484 12.4097 10.5269 12.4322 10.5269V14.9207C12.4097 14.9422 12.4097 14.9207 12.3872 14.9207C12.3197 14.8776 12.2522 14.8561 12.2072 14.813L8.08968 12.4869C8.06718 12.4653 8.04468 12.4653 8.04468 12.4653ZM16.7522 13.2622C16.7522 13.2838 16.7522 13.2838 16.7297 13.3053C15.4247 15.0715 14.1197 16.8161 12.8147 18.5822C12.6797 18.7761 12.5447 18.9484 12.4097 19.1422V19.1207V19.0776V15.7822V15.7176C12.7022 15.5453 12.9947 15.373 13.2872 15.2222L16.7297 13.2838C16.7297 13.2622 16.7522 13.2622 16.7522 13.2622Z" fill="#62688F"/>
<path d="M12.4094 10.5485V10.5054V5.57308V5.53L16.7294 12.3792C16.7519 12.4008 16.7744 12.4223 16.7744 12.4438C16.6844 12.4008 16.5944 12.3577 16.4819 12.3146C16.3694 12.2715 16.2569 12.2069 16.1444 12.1638C16.0769 12.1423 16.0094 12.0992 15.9194 12.0777C15.8069 12.0346 15.6719 11.97 15.5594 11.9269C15.4919 11.9054 15.4244 11.8623 15.3569 11.8408L14.8844 11.6469C14.7944 11.6038 14.7269 11.5823 14.6369 11.5392C14.5244 11.4962 14.4119 11.4315 14.2994 11.3885C14.2319 11.3669 14.1644 11.3238 14.0969 11.3023L13.6244 11.1085C13.5344 11.0654 13.4669 11.0438 13.3769 11.0008C13.2644 10.9577 13.1519 10.8931 13.0394 10.85C12.9719 10.8069 12.8819 10.7854 12.8144 10.7423L12.4094 10.5485Z" fill="#62688F"/>
</g>
<defs>
<clipPath id="clip0_1593_4525">
<rect width="9" height="14" fill="white" transform="translate(7.88647 5.33618)"/>
</clipPath>
</defs>
</svg>
