<svg width="25" height="25" viewBox="0 0 25 25" fill="none" xmlns="http://www.w3.org/2000/svg">
<g style="mix-blend-mode:luminosity">
<path d="M16.2412 9.58483H5.92065L8.53169 6.98152H18.8522L16.2412 9.58483Z" fill="url(#paint0_linear_1593_4514)"/>
<path d="M16.2412 17.6908H5.92065L8.53169 15.0888H18.8522" fill="url(#paint1_linear_1593_4514)"/>
<path d="M8.53169 13.6377H18.8522L16.2412 11.0344H5.92065" fill="url(#paint2_linear_1593_4514)"/>
</g>
<path d="M12.3865 22.3362C17.9093 22.3362 22.3865 17.859 22.3865 12.3362C22.3865 6.81333 17.9093 2.33618 12.3865 2.33618C6.86363 2.33618 2.38647 6.81333 2.38647 12.3362C2.38647 17.859 6.86363 22.3362 12.3865 22.3362Z" stroke="#939292" stroke-width="1.5" stroke-miterlimit="10" stroke-linecap="round" stroke-linejoin="round"/>
<defs>
<linearGradient id="paint0_linear_1593_4514" x1="7.49012" y1="8.28316" x2="17.0359" y2="8.28316" gradientUnits="userSpaceOnUse">
<stop stop-color="#BB44F4"/>
<stop offset="1" stop-color="#7AAEC4"/>
</linearGradient>
<linearGradient id="paint1_linear_1593_4514" x1="17.8102" y1="16.3898" x2="7.3277" y2="14.7603" gradientUnits="userSpaceOnUse">
<stop offset="0.537054" stop-color="#51ECAA"/>
<stop offset="0.988861" stop-color="#8B92D8"/>
</linearGradient>
<linearGradient id="paint2_linear_1593_4514" x1="8.06397" y1="12.3361" x2="17.1914" y2="12.3361" gradientUnits="userSpaceOnUse">
<stop stop-color="#9C77DE"/>
<stop offset="1" stop-color="#68C8BA"/>
</linearGradient>
</defs>
</svg>
