<svg width="35" height="34" viewBox="0 0 35 34" fill="none" xmlns="http://www.w3.org/2000/svg">
<path d="M12.9555 4.28711L31.4799 18.0623C30.4461 19.4582 30.7348 21.4314 32.1307 22.4704L27.1191 29.2032C25.7232 28.1694 23.7501 28.4581 22.7163 29.854L4.1866 16.0735C5.22565 14.6776 4.93178 12.7044 3.53589 11.6706L8.54745 4.93258C9.94334 5.97162 11.9112 5.67775 12.9555 4.28711Z" fill="#65BC6A"/>
<path d="M33.5896 19.626C33.8205 19.7992 33.8678 20.1298 33.6946 20.3607L32.1308 22.4703C30.7349 21.4312 30.4462 19.4581 31.48 18.0622L33.5896 19.626ZM27.1192 29.2031L25.5554 31.3127C25.3822 31.5436 25.0516 31.5908 24.8207 31.4176L22.7164 29.8538C23.7502 28.4579 25.7233 28.1693 27.1192 29.2031ZM20.654 13.2763C22.7426 14.8348 23.1782 17.7946 21.6248 19.8884C20.0663 21.9822 17.1066 22.4125 15.018 20.8592C12.9241 19.3006 12.4886 16.3409 14.0419 14.2524C15.6005 12.1585 18.5602 11.723 20.654 13.2763Z" fill="#398F3E"/>
<path d="M15.6425 20.016C15.7365 20.0858 15.8467 20.1199 15.9553 20.1199C16.1159 20.1199 16.2738 20.0469 16.3767 19.9084L16.8222 19.3091C16.8579 19.3144 16.8915 19.3243 16.9277 19.327C16.966 19.3296 17.0043 19.3312 17.0421 19.3312C17.8592 19.3312 18.5513 18.6972 18.6117 17.8702C18.6316 17.5942 18.5786 17.3176 18.4579 17.0694C18.4028 16.956 18.3341 16.8495 18.2533 16.7524C18.2234 16.7131 18.1882 16.6774 18.1478 16.6475C18.0355 16.5635 17.962 16.4412 17.9416 16.3027C17.9211 16.1642 17.9557 16.0256 18.0397 15.9133C18.1231 15.801 18.2459 15.7276 18.3845 15.7071C18.5241 15.6871 18.6616 15.7218 18.7744 15.8057C18.8494 15.8614 18.9061 15.9333 18.9428 16.0178C18.9612 16.0603 18.9738 16.1054 18.9806 16.1505C19.0231 16.4376 19.2908 16.6344 19.5762 16.5934C19.8628 16.5509 20.0611 16.2849 20.0191 15.9978C19.9992 15.8619 19.9614 15.7291 19.9068 15.6027C19.869 15.515 19.8139 15.4374 19.7609 15.3586L20.1351 14.8554C20.3083 14.6229 20.26 14.2944 20.027 14.1212C19.7951 13.9486 19.466 13.9963 19.2929 14.2293L18.9229 14.7268C18.7014 14.6581 18.4674 14.6339 18.2323 14.6691C17.8161 14.7305 17.4488 14.9498 17.198 15.2873C16.6952 15.9637 16.817 16.9146 17.4624 17.4436C17.4824 17.4703 17.4997 17.4987 17.5144 17.5286C17.5548 17.612 17.5721 17.7017 17.5653 17.7951C17.5443 18.0838 17.2851 18.3021 17.0043 18.2806C16.8642 18.2706 16.7367 18.2066 16.6454 18.1006C16.5535 17.9946 16.5084 17.8592 16.5189 17.7196C16.5399 17.4304 16.3221 17.1791 16.0335 17.1581C15.7333 17.1387 15.493 17.3549 15.472 17.6435C15.4416 18.0628 15.5764 18.469 15.8519 18.787C15.8614 18.798 15.8729 18.8053 15.8824 18.8158L15.536 19.2818C15.3613 19.5148 15.4095 19.8433 15.6425 20.016ZM4.18731 16.0734L18.7864 26.9309H18.7812L4.51267 22.3916C5.04269 20.7333 4.12434 18.9649 2.46606 18.4348L3.04856 16.6034L3.40016 15.4909L4.18731 16.0734Z" fill="#65BC6A"/>
<path d="M18.7804 26.9312L13.6534 25.2992L3.13701 17.4801L2.83789 17.2597L3.0478 16.6037L3.3994 15.4912L4.18655 16.0737L18.7804 26.9312Z" fill="#398F3E"/>
<path d="M19.9715 27.8127H6.19623C6.19623 26.0757 4.7846 24.6641 3.04761 24.6641V21.9248L4.51172 22.3919L18.7802 26.9311H18.7855L19.9715 27.8127Z" fill="#65BC6A"/>
<path d="M19.9715 27.8127H16.6024L4.51172 23.9662L3.04761 23.4991V21.9248L4.51172 22.3919L18.7802 26.9311H18.7855L19.9715 27.8127Z" fill="#29752B"/>
<path d="M32.435 24.6641V27.2879C32.435 27.5765 32.1989 27.8127 31.9102 27.8127H30.3254L30.4724 27.3456L31.2543 24.895C31.6164 24.7428 32.0152 24.6641 32.435 24.6641Z" fill="#236823"/>
<path d="M32.4351 22.0557V24.6638C32.0153 24.6638 31.6165 24.7425 31.2544 24.8947L31.9471 22.7169V22.7116L32.1308 22.4702L32.4351 22.0557Z" fill="#29752B"/>
<path d="M31.9466 22.7168L31.2539 24.8946L30.472 27.3453C30.0994 27.2246 29.7164 27.1826 29.3438 27.2036C29.0499 27.2193 28.7613 27.2771 28.4832 27.3715L31.9466 22.7168Z" fill="#65BC6A"/>
<path d="M30.4725 27.3457L30.3256 27.8127L29.6748 29.8488C29.5909 30.1217 29.2918 30.2739 29.0189 30.1899L26.8936 29.513L27.1192 29.2034L28.4836 27.3719C28.7617 27.2775 29.0504 27.2197 29.3442 27.204C29.7168 27.183 30.0999 27.225 30.4725 27.3457ZM32.4351 13.6439V15.8584L31.3908 15.5226L29.9687 15.0713H29.9635C29.5384 14.536 29.2865 13.8591 29.2865 13.1191H31.9104C32.199 13.1191 32.4351 13.3553 32.4351 13.6439Z" fill="#398F3E"/>
<path d="M29.9634 15.0713L25.5921 13.6806H25.5868L24.8364 13.1191H29.2865C29.2865 13.8591 29.5384 14.536 29.9634 15.0713Z" fill="#65BC6A"/>
<path d="M6.54867 7.61922L5.43091 9.12531V9.12006L5.96617 7.43555L6.54867 7.61922Z" fill="#398F3E"/>
<path d="M6.19663 27.8128H3.57278C3.28416 27.8128 3.04801 27.5767 3.04801 27.2881V24.6642C4.785 24.6642 6.19663 26.0759 6.19663 27.8128ZM2.46551 18.4352C4.12379 18.9652 5.04214 20.7337 4.51212 22.392L3.04801 21.9249L2.00896 21.5943C1.73608 21.5104 1.5839 21.2112 1.66786 20.9384L2.46551 18.4352ZM12.9557 4.28212V4.28737C11.9114 5.67801 9.9435 5.97188 8.54761 4.93283L10.1167 2.8285C10.2846 2.59236 10.6152 2.54513 10.8461 2.7183L12.9557 4.28212ZM3.53605 11.6709C4.93194 12.7047 5.22581 14.6778 4.18676 16.0737L2.08243 14.5099C1.84628 14.3367 1.79905 14.0061 1.97223 13.7752L3.53605 11.6709Z" fill="#398F3E"/>
<path d="M31.3743 15.5698C31.1486 16.1838 31.1119 17.1651 31.2536 17.8893L25.5913 13.6807L29.9627 15.0713H29.9679L31.39 15.5226L31.3743 15.5698Z" fill="#65BC6A"/>
<path d="M31.2539 17.8892C31.1123 17.165 31.149 16.1837 31.3746 15.5697L31.3904 15.5225L32.4347 15.8583L33.4737 16.1889C33.7466 16.2729 33.8988 16.572 33.8148 16.8449L33.0539 19.2273L31.4796 18.0624L31.2539 17.8892ZM31.9466 22.7171L31.2539 24.8949L30.472 27.3456C30.0994 27.2249 29.7164 27.1829 29.3438 27.2039C29.0499 27.2196 28.7613 27.2773 28.4832 27.3718L31.9466 22.7171Z" fill="#398F3E"/>
<path d="M29.3442 27.2044C29.0504 27.2201 28.7617 27.2779 28.4836 27.3723L27.5758 28.595L27.1192 29.2038L26.8936 29.5134L28.5886 30.0539L29.0189 30.1903C29.2918 30.2743 29.5909 30.1221 29.6748 29.8492L30.3256 27.8131L30.378 27.6452L30.4725 27.3461C30.0999 27.2254 29.7168 27.1834 29.3442 27.2044Z" fill="#29752B"/>
<path d="M30.5142 15.244L29.9684 15.0708H29.9632C29.8477 14.9291 29.748 14.7769 29.6641 14.6143L30.5142 15.244Z" fill="#236823"/>
<path d="M29.9634 15.0713L25.5921 13.6806H25.5868L24.8364 13.1191H27.6544L29.6643 14.6147C29.7483 14.7774 29.848 14.9296 29.9634 15.0713Z" fill="#29752B"/>
<path d="M31.1906 16.4357C31.2169 16.2206 31.2483 16.0106 31.2956 15.827L30.5137 15.2445L29.9679 15.0713H29.9627L25.5913 13.6807L30.8705 17.606L31.2536 17.8893C31.1696 17.4538 31.1486 16.9237 31.1906 16.4357Z" fill="#398F3E"/>
<path d="M33.0073 19.19L33.1119 19.0488L33.0544 19.2266L33.0073 19.19Z" fill="#398F3E"/>
<path d="M33.5901 17.5274L31.4805 15.9636L31.2968 15.8271C31.2496 16.0108 31.2181 16.2207 31.1919 16.4359C31.1499 16.9239 31.1709 17.4539 31.2549 17.8895L31.4805 18.0627L33.0076 19.1909L33.1126 19.0492L33.5953 17.5327L33.5901 17.5274Z" fill="#29752B"/>
</svg>
