<svg width="35" height="34" viewBox="0 0 35 34" fill="none" xmlns="http://www.w3.org/2000/svg">
<path d="M11.2494 11.6085H0.950195C0.950195 11.1827 1.02261 10.7741 1.15643 10.3939C1.65706 8.96997 3.01412 7.94903 4.60969 7.94824V7.94903H9.25155C9.41606 8.83773 9.75533 9.66503 10.2316 10.3939C10.5222 10.8372 10.8638 11.2448 11.2494 11.6085Z" fill="#526471"/>
<path d="M22.578 6.67036C22.5811 7.10724 22.5426 7.53466 22.4654 7.94871C22.3046 8.82073 21.9714 9.65191 21.4854 10.3936C21.1952 10.8372 20.8536 11.2449 20.4676 11.6082H11.2484C10.8629 11.2445 10.5213 10.8369 10.2306 10.3936C9.7453 9.65157 9.41219 8.82053 9.25063 7.94871C9.17978 7.56536 9.142 7.17099 9.13885 6.76797C9.11209 3.05732 12.0986 0.0267639 15.8092 6.23944e-07H15.858C19.5474 -0.00157369 22.5512 2.97624 22.578 6.67036Z" fill="#FFC035"/>
<path d="M28.3978 11.6085H20.468C20.8529 11.2464 21.1953 10.8379 21.4858 10.3939C21.9718 9.65224 22.305 8.82106 22.4658 7.94903H24.0645V7.94824H24.7376C26.3331 7.94824 27.6902 8.96918 28.1916 10.3939C28.3254 10.7741 28.3978 11.1827 28.3978 11.6085Z" fill="#526471"/>
<path d="M24.0655 20.8838C25.0763 20.8838 25.8957 21.7032 25.8957 22.7139C25.8957 23.7254 25.0763 24.5449 24.0655 24.5449C23.054 24.5449 22.2346 23.7254 22.2346 22.7139C22.2346 21.7032 23.054 20.8838 24.0655 20.8838Z" fill="#ECEFF0"/>
<path d="M24.0654 19.0527C22.059 19.0527 20.4295 20.6664 20.4044 22.6666C20.4036 22.6823 20.4036 22.6988 20.4036 22.7146C20.4036 24.736 22.0432 26.3749 24.0654 26.3749H34.0458V19.0527H24.0654ZM25.8956 22.7138C25.8956 23.7253 25.0761 24.5447 24.0654 24.5447C23.0539 24.5447 22.2345 23.7253 22.2345 22.7138C22.2345 22.6981 22.2345 22.6823 22.2361 22.6666C22.2605 21.6779 23.0697 20.8837 24.0654 20.8837C25.0604 20.8837 25.8696 21.6779 25.8948 22.6666C25.8956 22.6823 25.8956 22.6981 25.8956 22.7138Z" fill="#758289"/>
<path d="M20.4038 22.7144C20.4038 24.7358 22.0434 26.3747 24.0656 26.3747H34.046V30.1585C33.9956 32.1351 32.3749 33.7236 30.3857 33.7236H4.61028C2.58887 33.7236 0.950006 32.0847 0.950006 30.0625H0.949219V11.6084H30.3857C32.4079 11.6084 34.046 13.248 34.046 15.2695V19.0525H24.0656C22.0434 19.0525 20.4038 20.6922 20.4038 22.7144Z" fill="#303C44"/>
<path d="M16.2007 10.3188L16.2094 11.6065V11.6089H15.5796L15.571 10.3487L14.2304 10.3581H14.2281C14.0549 10.3581 13.9148 10.2188 13.9132 10.0456C13.9129 10.0043 13.9207 9.96325 13.9363 9.92493C13.9518 9.8866 13.9747 9.85172 14.0037 9.82226C14.0328 9.7928 14.0673 9.76935 14.1054 9.75324C14.1435 9.73713 14.1844 9.72869 14.2257 9.72839L15.8811 9.71658C16.6202 9.71107 17.2169 9.10496 17.2122 8.36582C17.2075 7.62983 16.6061 7.03474 15.8709 7.03474H15.8473C15.3262 7.03474 14.8358 6.83402 14.4642 6.46799C14.0888 6.09803 13.8809 5.60448 13.877 5.07866C13.8731 4.55205 14.0746 4.05535 14.4438 3.68067C14.7389 3.38234 15.1121 3.18948 15.5182 3.12179L15.5072 1.55062C15.5069 1.50927 15.5147 1.46826 15.5303 1.42994C15.5458 1.39161 15.5687 1.35672 15.5977 1.32726C15.6268 1.2978 15.6613 1.27435 15.6994 1.25825C15.7375 1.24214 15.7784 1.2337 15.8197 1.2334H15.8221C15.9952 1.2334 16.1354 1.37272 16.1369 1.5459L16.148 3.09187L17.4885 3.08164H17.4908C17.664 3.08164 17.8041 3.22097 17.8057 3.39414C17.806 3.43549 17.7982 3.4765 17.7827 3.51483C17.7671 3.55315 17.7442 3.58804 17.7152 3.6175C17.6862 3.64696 17.6516 3.67041 17.6135 3.68652C17.5754 3.70262 17.5346 3.71107 17.4932 3.71137L15.8378 3.72396C15.0987 3.72868 14.502 4.33479 14.5067 5.07393C14.5091 5.43209 14.6508 5.76821 14.9058 6.01931C15.1609 6.27041 15.4954 6.40895 15.8567 6.40502H15.8709C16.9516 6.40502 17.8348 7.27955 17.8419 8.3611C17.849 9.34032 17.1366 10.1598 16.2007 10.3188Z" fill="#C98B0E"/>
<path opacity="0.2" d="M28.3983 11.6081H0.950195C0.950195 11.1823 1.02261 10.7738 1.15643 10.3936H28.1921C28.3259 10.7738 28.3983 11.1823 28.3983 11.6081Z" fill="black"/>
</svg>
